<svg xmlns="http://www.w3.org/2000/svg" width="19" height="14" viewBox="0 0 19 14" fill="none">
<path d="M0.996851 12.1576L0.99641 12.1571C0.679002 11.8401 0.500453 11.4101 0.5 10.9615V5.11553C0.5 5.05433 0.524313 4.99563 0.567591 4.95236C0.610869 4.90908 0.669566 4.88477 0.730769 4.88477C0.791973 4.88477 0.85067 4.90908 0.893947 4.95236C0.937225 4.99563 0.961538 5.05433 0.961538 5.11553V10.9617C0.961538 11.2881 1.09121 11.6012 1.32202 11.832C1.55284 12.0628 1.86589 12.1925 2.19231 12.1925H16.8077C17.1341 12.1925 17.4472 12.0628 17.678 11.832C17.9088 11.6012 18.0385 11.2881 18.0385 10.9617V5.11553C18.0385 5.05433 18.0628 4.99563 18.1061 4.95236C18.1493 4.90908 18.208 4.88477 18.2692 4.88477C18.3304 4.88477 18.3891 4.90908 18.4324 4.95236C18.4757 4.99563 18.5 5.05433 18.5 5.11553V10.9612C18.4996 11.4099 18.3211 11.8401 18.0036 12.1571L18.0032 12.1576C17.6861 12.475 17.2559 12.6536 16.8073 12.654H2.19275C1.74407 12.6536 1.31392 12.475 0.996851 12.1576Z" fill="#EA7F1B" stroke="#EA7F1B"/>
<path d="M18.0032 0.99641L18.0033 0.996538C18.0458 1.03911 18.0861 1.0838 18.1239 1.13042L17.0901 0.967625C16.9855 0.951148 16.8791 0.94912 16.7741 0.961538H2.22593C2.12088 0.94912 2.01456 0.951149 1.90993 0.967625L0.876146 1.13042C0.913942 1.0838 0.954186 1.03911 0.996737 0.996538L0.996865 0.99641C1.31388 0.679002 1.74394 0.500453 2.19254 0.5H16.8075C17.2561 0.500453 17.6861 0.679002 18.0032 0.99641ZM17.3133 1.86079L18.1818 1.20603C18.2411 1.2879 18.2932 1.37493 18.3374 1.46618C18.3601 1.51402 18.3656 1.56822 18.3531 1.61967C18.3405 1.67125 18.3105 1.71691 18.2682 1.74896C18.2681 1.74905 18.2679 1.74915 18.2678 1.74924L9.63848 8.22308C9.63846 8.22309 9.63844 8.2231 9.63842 8.22312C9.59848 8.25305 9.54992 8.26923 9.50001 8.26923C9.45011 8.26923 9.40154 8.25305 9.36161 8.22312C9.36159 8.2231 9.36157 8.22309 9.36155 8.22308L0.732209 1.74924C0.732089 1.74915 0.731969 1.74906 0.73185 1.74897C0.689522 1.71692 0.659536 1.67126 0.646954 1.61967C0.634406 1.56823 0.639935 1.51404 0.662597 1.4662C0.706856 1.37495 0.758949 1.28791 0.818203 1.20603L1.68671 1.86079L9.19902 7.52425L9.50001 7.75117L9.80101 7.52425L17.3133 1.86079Z" fill="#EA7F1B" stroke="#EA7F1B"/>
</svg>