<svg width="158" height="158" viewBox="0 0 158 158" fill="none" xmlns="http://www.w3.org/2000/svg">
<circle cx="76" cy="76" r="76" fill="#EA7F1B"/>
<circle cx="76" cy="76" r="71" fill="white" stroke="white" stroke-width="2"/>
<path d="M99.6157 46.6629C92.0721 41.2555 82.7834 38.0665 72.7468 38.0665C47.5254 38.0665 27.0837 58.1815 27.0837 83C27.0837 107.818 47.5254 127.933 72.7468 127.933C91.5518 127.933 107.701 116.745 114.703 100.758C115.321 99.3394 117.315 94.252 118.182 92.2469C119.83 88.4287 121.965 87.8101 123.569 87.3835" stroke="#EA7F1B" stroke-width="3" stroke-linecap="round" stroke-linejoin="round"/>
<path d="M58.906 83.6932H98.4778" stroke="#EA7F1B" stroke-width="3" stroke-linecap="round" stroke-linejoin="round"/>
<path d="M69.051 66.6392V100.758" stroke="#EA7F1B" stroke-width="3" stroke-linecap="round" stroke-linejoin="round"/>
<path d="M79.2068 72.6225V94.7746" stroke="#EA7F1B" stroke-width="3" stroke-linecap="round" stroke-linejoin="round"/>
<path d="M89.1675 77.8806V89.5059" stroke="#EA7F1B" stroke-width="3" stroke-linecap="round" stroke-linejoin="round"/>
<path d="M98.4778 83.6932C113.609 83.6932 113.544 66.9912 109.36 58.1495C105.176 49.3079 96.6353 44.7004 96.6353 44.7004" stroke="#EA7F1B" stroke-width="3" stroke-linecap="round" stroke-linejoin="round"/>
<path d="M128.869 85.1438C128.154 84.9731 128.002 84.0452 128.609 83.6399C130.441 82.4241 133.682 80.8669 137.54 81.6455C138.852 81.9121 140.185 82.4347 141.41 83.0427C144.293 84.4718 144.889 88.2794 142.602 90.5298C140.608 92.4922 137.269 92.2683 135.643 89.9965C134.18 87.9488 131.991 85.8797 128.858 85.1438H128.869Z" fill="#EA7F1B"/>
<path d="M55.6111 83.6933C55.6111 76.2275 58.5267 71.972 60.8245 69.1136C61.2797 68.559 60.8136 67.7484 60.0875 67.8338C45.5529 69.4443 34.6709 75.9395 34.6709 83.6933C34.6709 91.447 45.5204 97.9316 60.0333 99.5528C60.7594 99.6381 61.2255 98.8062 60.7594 98.2622C58.0715 95.1053 55.6111 91.3404 55.6111 83.6933Z" fill="#EA7F1B"/>
<path d="M47.3412 83.6933C48.5743 83.6933 49.5739 82.7096 49.5739 81.4962C49.5739 80.2828 48.5743 79.2991 47.3412 79.2991C46.108 79.2991 45.1084 80.2828 45.1084 81.4962C45.1084 82.7096 46.108 83.6933 47.3412 83.6933Z" fill="white"/>
</svg>
