<svg xmlns="http://www.w3.org/2000/svg" width="148" height="71" viewBox="0 0 148 71" fill="none">
  <g clip-path="url(#clip0_57_235)">
    <path d="M66.6084 2.08885L66.6084 68.9112" stroke="#EA7F1B" stroke-width="4" stroke-linecap="round" stroke-linejoin="round"/>
    <path d="M86.2844 13.8073V57.1927" stroke="#EA7F1B" stroke-width="4" stroke-linecap="round" stroke-linejoin="round"/>
    <path d="M105.582 24.1053V46.8947" stroke="#EA7F1B" stroke-width="4" stroke-linecap="round" stroke-linejoin="round"/>
    <path d="M125.594 38.7899C124.712 37.6828 125.615 36.0535 127.043 36.158C131.306 36.4713 137.186 39.3539 141.742 42.9259C144.934 45.4325 146.194 48.0018 147.244 50.5084C149.659 56.2527 146.152 62.7073 139.936 63.4384C134.519 64.0859 129.689 59.7411 130.004 54.3101C130.277 49.4013 129.458 43.6152 125.594 38.7482V38.7899Z" fill="#EA7F1B"/>
    <path d="M125.594 32.2309C124.712 33.338 125.615 34.9673 127.043 34.8629C131.306 34.5496 137.186 31.667 141.742 28.095C144.934 25.5884 146.194 23.0191 147.244 20.5125C149.659 14.7682 146.152 8.31362 139.936 7.58252C134.519 6.93498 129.689 11.2798 130.004 16.7108C130.277 21.6196 129.458 27.4057 125.594 32.2727V32.2309Z" fill="#EA7F1B"/>
    <path d="M40.5698 35.5104C40.5698 20.8885 46.2185 12.554 50.6703 6.95587C51.5522 5.86967 50.6493 4.28214 49.2423 4.44925C21.0619 7.60341 0 20.3036 0 35.5104C0 50.7173 21.0199 63.3966 49.1373 66.5716C50.5443 66.7387 51.4472 65.1094 50.5443 64.0441C45.3365 57.8611 40.5698 50.4875 40.5698 35.5104ZM24.5687 35.5104C22.1748 35.5104 20.2429 33.5887 20.2429 31.2074C20.2429 28.8261 22.1748 26.9044 24.5687 26.9044C26.9625 26.9044 28.8944 28.8261 28.8944 31.2074C28.8944 33.5887 26.9625 35.5104 24.5687 35.5104Z" fill="#EA7F1B"/>
    <path d="M117.993 35.5104L46.9534 35.5104" stroke="#EA7F1B" stroke-width="4" stroke-linecap="round" stroke-linejoin="round"/>
  </g>
  <defs>
    <clipPath id="clip0_57_235">
      <rect width="148" height="71" fill="white"/>
    </clipPath>
  </defs>
</svg>